# xmcd CD database file
#
# Track frame offsets:
#	150
#	17354
#	42345
#	57070
#	74803
#	91694
#	110385
#	131655
#	146587
#	159807
#	172712
#	186249
#
# Disc length: 2948 seconds
#
# Revision: 0
# Processed by: cddbd v1.5.2PL0 Copyright (c) Steve Scherf et al.
# Submitted via: CDex 1.70beta2
#
DISCID=940b820c
DTITLE=Patty Loveless - Dreamin' My Dreams  [Bonus Tracks]
DYEAR=2005
DGENRE=Country
TTITLE0=Keep Your Distance
TTITLE1=Old Soul
TTITLE2=When Being Who You Are Is Not Enough
TTITLE3=Nobody Here By That Name
TTITLE4=Same Kind Of Crazy
TTITLE5=Everything But The Words
TTITLE6=Deaming My Dreams With You
TTITLE7=On The Verge Of Texas
TTITLE8=Never Ending Song Of Love  [w/ Dwight Yoakam]
TTITLE9=Big Chance
TTITLE10=My Old Friend The Blues
TTITLE11=When I Reach The Place I'm Going
EXTD=YEAR: 2005
EXTT0=
EXTT1=
EXTT2=
EXTT3=
EXTT4=
EXTT5=
EXTT6=
EXTT7=
EXTT8=
EXTT9=
EXTT10=
EXTT11=
PLAYORDER=
